<svg width="215" height="69" viewBox="0 0 215 69" fill="none" xmlns="http://www.w3.org/2000/svg">
<circle cx="7.5" cy="7.5" r="7.5" fill="#F15025"/>
<circle cx="27.5" cy="7.5" r="7.5" fill="#F15025"/>
<circle cx="47.5" cy="7.5" r="7.5" fill="#F15025"/>
<circle cx="67.5" cy="7.5" r="7.5" fill="#F15025"/>
<circle cx="87.5" cy="7.5" r="7.5" fill="#F15025"/>
<circle cx="107.5" cy="7.5" r="7.5" fill="#F15025"/>
<circle cx="127.5" cy="7.5" r="7.5" fill="#F15025"/>
<circle cx="147.5" cy="7.5" r="7.5" fill="#F15025"/>
<circle cx="167.5" cy="7.5" r="7.5" fill="#F15025"/>
<circle cx="187.5" cy="7.5" r="7.5" fill="#F15025"/>
<circle cx="207.5" cy="7.5" r="7.5" fill="#F15025"/>
<circle cx="7.5" cy="34.5" r="7.5" fill="#F15025"/>
<circle cx="27.5" cy="34.5" r="7.5" fill="#F15025"/>
<circle cx="47.5" cy="34.5" r="7.5" fill="#F15025"/>
<circle cx="67.5" cy="34.5" r="7.5" fill="#F15025"/>
<circle cx="87.5" cy="34.5" r="7.5" fill="#F15025"/>
<circle cx="107.5" cy="34.5" r="7.5" fill="#F15025"/>
<circle cx="127.5" cy="34.5" r="7.5" fill="#F15025"/>
<circle cx="147.5" cy="34.5" r="7.5" fill="#F15025"/>
<circle cx="7.5" cy="61.5" r="7.5" fill="#F15025"/>
<circle cx="27.5" cy="61.5" r="7.5" fill="#F15025"/>
<circle cx="47.5" cy="61.5" r="7.5" fill="#F15025"/>
<circle cx="67.5" cy="61.5" r="7.5" fill="#F15025"/>
<circle cx="87.5" cy="61.5" r="7.5" fill="#F15025"/>
</svg>
