<svg width="331" height="119" viewBox="0 0 331 119" fill="none" xmlns="http://www.w3.org/2000/svg">
<path fill-rule="evenodd" clip-rule="evenodd" d="M54.103 0.955906C53.8002 1.05064 53.3512 1.35401 53.1062 1.62998C52.2473 2.60392 51.8787 3.06442 51.8787 3.16945C51.8787 3.22835 51.5595 3.69916 51.1682 4.21609C50.7769 4.73385 50.4556 5.21721 50.4556 5.28991C50.4556 5.36344 50.3588 5.46084 50.2414 5.50615C50.124 5.55043 50.0293 5.65649 50.0293 5.74093C50.0293 5.82475 49.7245 6.30647 49.3517 6.81064C48.981 7.31459 48.3549 8.18432 47.9636 8.74388C47.5723 9.30365 47.1728 9.84531 47.0739 9.94685C46.9771 10.0494 46.8968 10.1963 46.8968 10.2733C46.8968 10.3509 46.8474 10.4356 46.7897 10.4611C46.73 10.4877 46.489 10.797 46.2542 11.1498C46.0194 11.5018 45.7785 11.8546 45.7188 11.9332C45.5952 12.0963 44.5139 13.6206 43.5192 15.0379C43.1444 15.5709 42.7737 16.0835 42.6933 16.1774C42.6151 16.2705 42.2959 16.731 41.9829 17.201C41.6698 17.6708 41.3794 18.0878 41.3382 18.1272C41.1529 18.3022 40.2034 19.7049 40.2034 19.8042C40.2034 19.8648 40.0263 20.1125 39.8121 20.3543C39.5959 20.5961 39.357 20.8951 39.2787 21.0189C38.9822 21.4889 38.2654 22.4995 37.6805 23.2778C37.3448 23.722 37.071 24.1193 37.071 24.1613C37.071 24.2023 36.7661 24.6481 36.3934 25.1513C36.0227 25.6554 35.6211 26.209 35.5057 26.3833C35.3863 26.5567 34.9703 27.1412 34.579 27.681C34.1877 28.2218 33.5801 29.0839 33.2259 29.5965C32.6142 30.4874 31.2261 32.4209 30.9831 32.7216C30.9193 32.8002 30.7133 33.1205 30.5238 33.4333C30.3364 33.7468 30.0975 34.0543 29.9945 34.1167C29.8936 34.1799 29.8092 34.2944 29.8092 34.3721C29.8092 34.4499 29.7412 34.5908 29.6588 34.6857C29.5785 34.7796 29.1975 35.3058 28.8144 35.8545C28.4314 36.4021 28.0174 36.9633 27.8959 37.1001C27.7744 37.2368 27.6734 37.3853 27.6734 37.429C27.6734 37.4724 27.4655 37.7861 27.2101 38.1245C26.9568 38.4634 26.652 38.883 26.5346 39.0582C26.4172 39.2325 26.1247 39.64 25.8838 39.9638C25.6449 40.2884 25.2041 40.9231 24.9076 41.3752C24.0096 42.7394 25.2453 42.6173 12.2643 42.6173H0.762024V67.3716V92.1263L1.18834 92.7153C1.97713 93.8027 1.50343 93.7595 12.2561 93.7389C23.365 93.7204 22.813 93.7904 23.538 92.2911C23.8263 91.6918 23.8284 91.5476 23.8284 71.2286C23.8284 54.6402 23.8634 50.7395 24.0138 50.6155C24.2176 50.4473 24.4586 50.6676 25.4718 51.9441C25.7828 52.3352 26.1 52.7249 26.1783 52.8103C26.4501 53.105 27.6034 54.4736 27.8155 54.753C27.9329 54.9077 28.1904 55.2144 28.386 55.4347C29.0327 56.1617 29.3087 56.489 30.2416 57.6168C30.7483 58.2309 31.3971 58.9872 31.6854 59.2971C31.9737 59.6073 32.4515 60.178 32.7481 60.566C33.0426 60.953 33.335 61.2707 33.3988 61.2707C33.4606 61.2707 33.5101 61.3364 33.5101 61.4176C33.5101 61.4987 33.6872 61.7397 33.9035 61.9541C34.1176 62.1687 34.6572 62.7915 35.1 63.3383C35.5428 63.884 36.0865 64.5309 36.309 64.7735C36.9041 65.4219 37.3551 65.9524 37.9895 66.7521C38.2984 67.1442 38.6197 67.5347 38.7021 67.621C38.8627 67.7884 39.8657 68.9561 40.6483 69.885C40.914 70.1988 41.2661 70.6149 41.435 70.8105C41.7048 71.1236 41.9788 71.451 43.2165 72.9462C43.3792 73.1419 43.7932 73.6217 44.1392 74.013C45.0289 75.0243 45.0762 75.0819 45.6179 75.7945C45.8856 76.1467 46.1822 76.4824 46.2748 76.5421C46.3696 76.5998 46.7856 77.0796 47.2036 77.6069C47.6217 78.1341 48.0604 78.6675 48.1778 78.7931C48.2952 78.9188 48.5197 79.1762 48.6762 79.3677C49.7348 80.659 50.2703 81.2975 50.4556 81.4973C50.7316 81.7918 51.3742 82.5455 52.0929 83.4146C52.406 83.7915 53.0815 84.5865 53.5922 85.1817C54.103 85.7728 54.6693 86.4524 54.8464 86.6872C55.0256 86.922 55.4828 87.4657 55.8618 87.8961C56.2407 88.3265 56.8153 89 57.1407 89.3913C57.843 90.2419 58.8419 91.4014 59.1488 91.7226C59.2682 91.8503 59.6348 92.2808 59.9602 92.6783C60.3679 93.1787 60.7202 93.4506 61.1032 93.5659C61.8611 93.7924 84.3405 93.811 85.2364 93.5865C87.162 93.1004 87.3 90.4334 85.4856 88.7508C85.4423 88.7117 85.1211 88.3286 84.7689 87.8982C84.1675 87.1609 83.597 86.4895 83.2757 86.1332C83.1954 86.0467 82.7155 85.468 82.2068 84.846C81.6982 84.2261 81.0536 83.4579 80.7755 83.1387C80.4975 82.8195 80.1371 82.3849 79.9785 82.1728C79.8178 81.9627 79.3607 81.4169 78.9632 80.9638C78.2609 80.1606 77.608 79.3822 76.7266 78.2886C76.4918 77.9982 76.119 77.5595 75.8966 77.3103C75.6762 77.0631 75.3549 76.6801 75.184 76.4577C75.0151 76.2352 74.8092 75.9799 74.7268 75.8893C74.5352 75.673 73.0606 73.908 72.3995 73.1007C72.1174 72.7567 71.6293 72.1719 71.3142 71.8053C70.0867 70.3616 69.9632 70.2091 69.9632 70.1618C69.9632 70.1371 69.7346 69.8704 69.4545 69.5722C69.1764 69.2741 68.6471 68.6462 68.2826 68.1762C67.673 67.3911 67.1293 66.7401 66.7524 66.3412C66.67 66.2541 66.3488 65.8628 66.0398 65.4707C65.7309 65.0794 65.3087 64.5668 65.1007 64.3318C64.6517 63.82 63.8197 62.8368 63.105 61.9722C61.7211 60.2976 60.9241 59.3416 60.854 59.2767C60.6769 59.1093 59.3053 57.4442 58.8625 56.8564C58.5968 56.5036 58.3105 56.1516 58.2261 56.073C58.1396 55.9951 57.6556 55.4244 57.1469 54.8051C56.6382 54.1867 56.1172 53.5688 55.9874 53.4331C55.8597 53.2972 55.4849 52.8427 55.1533 52.4225C54.8218 52.003 54.2739 51.3392 53.9341 50.9471C53.5963 50.5558 53.0856 49.9466 52.8014 49.5946C52.5172 49.2418 51.9529 48.577 51.5471 48.1157C51.1435 47.6544 50.5648 46.9496 50.262 46.5497C49.9593 46.1491 49.6709 45.7876 49.6215 45.7475C48.9192 45.1786 48.6062 44.643 48.7813 44.3149C48.9666 43.9697 49.432 43.2401 49.638 42.9736C50.3176 42.0935 50.7398 41.4674 50.7398 41.3402C50.7398 41.2547 50.8366 41.1478 50.954 41.1025C51.0714 41.0582 51.1682 40.9573 51.1682 40.8805C51.1682 40.8035 51.2794 40.5934 51.4174 40.414C51.5533 40.2346 51.7613 39.9424 51.8787 39.7646C51.9961 39.5877 52.2865 39.1795 52.5233 38.8583C52.7622 38.5378 53.1515 37.9869 53.3904 37.6339C55.2439 34.9053 55.8103 34.0817 56.1336 33.6469C56.3396 33.3718 56.5702 33.041 56.6506 32.9104C56.9657 32.3851 57.9193 30.9992 58.1025 30.7995C58.2117 30.6814 58.568 30.1876 58.8975 29.7015C60.5348 27.2855 61.2082 26.3081 61.2824 26.2432C61.3277 26.2039 61.5172 25.9152 61.7067 25.6025C61.8961 25.2889 62.1021 24.9686 62.1638 24.8899C62.6231 24.3149 63.2698 23.3966 63.2698 23.3214C63.2698 23.2718 63.5458 22.8677 63.8856 22.4235C64.2233 21.9792 64.7815 21.183 65.1254 20.6542C65.4694 20.1253 65.8029 19.693 65.8627 19.693C65.9245 19.693 65.976 19.5948 65.976 19.4753C65.976 19.3548 66.0666 19.2224 66.1757 19.1796C66.2869 19.1377 66.4126 18.9635 66.4559 18.7926C66.5012 18.6227 66.6989 18.309 66.8966 18.0971C67.0943 17.8854 67.257 17.6743 67.257 17.629C67.257 17.5112 67.8769 16.6414 68.0005 16.5858C68.0561 16.5611 68.2476 16.2485 68.4268 15.8922C68.6039 15.5359 68.8304 15.213 68.9293 15.1753C69.0282 15.137 69.1085 15.0439 69.1085 14.9687C69.1085 14.8925 69.3968 14.4551 69.749 13.9973C70.1012 13.5394 70.3895 13.1061 70.3895 13.0336C70.3895 12.9617 70.5172 12.7867 70.6737 12.6448C70.8323 12.5031 70.9599 12.3305 70.9599 12.2605C70.9599 12.1913 71.0259 12.057 71.1062 11.9623C71.1865 11.8684 71.5057 11.4377 71.8147 11.0071C72.1215 10.5764 72.4242 10.1604 72.486 10.0819C72.6158 9.91698 74.2366 7.5222 74.4487 7.18218C74.527 7.05758 74.8627 6.59027 75.1963 6.14418C75.5279 5.6983 75.7998 5.26252 75.7998 5.1754C75.7998 5.08911 75.8925 4.98242 76.0057 4.93958C76.119 4.89613 76.2508 4.67473 76.3003 4.44757C76.3517 4.21938 76.4506 3.99736 76.5227 3.95205C76.6916 3.84867 76.6957 2.6484 76.5288 2.54501C76.4588 2.50217 76.36 2.29725 76.3064 2.09047C76.1787 1.58034 75.7298 1.23435 74.8524 0.973819C73.8886 0.686725 55.0256 0.67149 54.103 0.955906ZM223.814 17.3641C219.338 19.0848 217.188 22.8072 217.919 27.5683C218.006 28.1314 218.125 28.6568 218.187 28.7344C218.247 28.8131 218.346 29.0378 218.405 29.2334C218.545 29.698 219.711 31.4964 220.125 31.8869C220.739 32.4679 222.106 33.4649 222.426 33.5658C222.601 33.6212 222.745 33.7186 222.745 33.7835C222.745 33.8475 222.986 33.9449 223.278 34.0005C223.573 34.0551 223.859 34.1748 223.915 34.2654C224.09 34.549 228.691 34.467 229.224 34.1715C229.459 34.0407 229.727 33.933 229.821 33.933C230.767 33.9278 233.722 31.1897 234.28 29.8022C234.358 29.6068 234.519 29.2769 234.636 29.0684C234.752 28.8608 234.848 28.5645 234.848 28.4098C234.848 28.2551 234.943 27.8989 235.063 27.6177C235.201 27.2837 235.275 26.6329 235.275 25.7442C235.275 24.8557 235.201 24.2047 235.063 23.8715C234.943 23.5906 234.849 23.2565 234.846 23.1282C234.846 23.001 234.752 22.713 234.634 22.4894C234.517 22.2647 234.42 22.0202 234.42 21.9451C234.42 20.9703 230.589 17.5573 229.496 17.5573C229.403 17.5573 229.144 17.4615 228.919 17.3445C228.338 17.0412 224.617 17.055 223.814 17.3641ZM266.031 17.2976C265.757 17.3728 265.181 17.4873 264.75 17.5505C263.819 17.6862 261.717 18.321 260.691 18.7747C259.313 19.3839 258.833 19.611 258.77 19.6837C258.73 19.728 258.399 19.9109 258.032 20.0894C257.666 20.268 257.344 20.4602 257.32 20.5166C257.27 20.6303 256.399 21.259 256.292 21.259C256.113 21.259 254.171 23.1138 253.217 24.1944C252.505 25.0028 252.284 25.3086 252.08 25.7802C252.004 25.9561 251.876 26.1005 251.796 26.1005C251.716 26.1005 251.65 26.1586 251.65 26.2304C251.65 26.3021 251.425 26.701 251.151 27.1173C250.878 27.5333 250.653 27.9501 250.653 28.0432C250.653 28.1373 250.546 28.4269 250.414 28.6874C250.284 28.9488 250.093 29.3316 249.988 29.5401C249.883 29.7477 249.798 29.9946 249.798 30.0877C249.798 30.1816 249.712 30.4602 249.607 30.7062C249.3 31.4299 248.964 32.6695 248.884 33.3948C248.843 33.7647 248.748 34.1816 248.674 34.32C248.237 35.1394 247.955 89.9371 248.377 91.8277C248.571 92.6844 249.37 93.4465 250.083 93.4547C255.254 93.5227 262.814 93.4114 262.992 93.2673C263.441 92.9007 263.828 92.4229 263.916 92.1243C263.968 91.9533 264.017 83.2581 264.025 72.8041C264.036 61.1185 264.095 53.7124 264.178 53.5818C264.289 53.4041 264.921 53.3563 267.912 53.2964L271.514 53.2255V47.9569V42.6891L267.912 42.6173C264.925 42.5584 264.287 42.5095 264.17 42.3328C263.854 41.8577 264.238 35.9535 264.606 35.5837C264.687 35.5058 264.752 35.3419 264.754 35.2206C264.781 33.8595 267.714 30.7995 268.991 30.7995C269.069 30.7995 269.314 30.7037 269.539 30.5867C269.763 30.4695 270.204 30.3721 270.517 30.3696C270.83 30.367 271.343 30.2996 271.656 30.2193C271.969 30.139 272.513 30.0638 272.867 30.0527C273.734 30.0245 278.988 30.5455 279.737 30.7344L280.129 30.8326V24.4764V18.1193L279.737 17.9614C279.521 17.8734 278.673 17.7435 277.849 17.6718C277.027 17.5999 275.929 17.4488 275.408 17.3351C274.302 17.0951 266.87 17.0651 266.031 17.2976ZM188.823 31.2624L188.786 44.3977L188.454 44.4446C188.273 44.4704 187.727 44.297 187.243 44.0593C186.761 43.8219 186.189 43.586 185.973 43.5339C185.756 43.4827 185.544 43.3836 185.501 43.3136C185.458 43.2444 185.283 43.1846 185.112 43.182C184.939 43.1795 184.543 43.0539 184.23 42.9027C183.915 42.7513 183.54 42.6249 183.394 42.6224C183.248 42.6199 182.832 42.525 182.469 42.4132C178.089 41.0531 170.135 41.3383 166.409 42.988C166.162 43.0973 165.895 43.1871 165.816 43.1871C165.736 43.1871 165.489 43.2802 165.268 43.3939C165.046 43.5076 164.576 43.7356 164.224 43.9013C163.872 44.0671 163.39 44.325 163.155 44.4755C162.921 44.6259 162.599 44.8172 162.445 44.9C161.796 45.2427 160.791 45.9005 160.593 46.1114C160.515 46.1952 160.132 46.5165 159.741 46.8256C158.272 47.9919 156.293 50.1328 155.366 51.5596C155.076 52.0055 154.781 52.4396 154.709 52.5224C154.639 52.606 154.497 52.8299 154.396 53.0204C154.295 53.2119 154.176 53.3997 154.129 53.4391C153.943 53.5929 152.549 56.5899 152.549 56.8325C152.549 56.906 152.452 57.1495 152.335 57.3742C152.217 57.5989 152.123 57.914 152.123 58.0746C152.121 58.2361 152.028 58.4925 151.913 58.6445C151.797 58.7967 151.7 59.1221 151.698 59.3674C151.696 59.6133 151.597 59.9978 151.48 60.2216C151.365 60.4463 151.268 60.9008 151.268 61.2322C151.266 61.563 151.175 62.0756 151.064 62.3711C150.358 64.2506 150.634 72.7753 151.488 75.5288C151.602 75.8913 151.696 76.3403 151.698 76.5256C151.702 76.711 151.795 77.022 151.906 77.2176C152.02 77.4133 152.114 77.7016 152.121 77.8581C152.127 78.0146 152.254 78.3998 152.405 78.7128C152.557 79.0258 152.683 79.3533 152.685 79.4398C152.689 79.5284 152.881 79.9753 153.115 80.4366C153.35 80.8979 153.542 81.3222 153.542 81.3799C153.546 81.5446 155.286 84.3744 155.537 84.6215C155.579 84.6606 155.803 84.9819 156.036 85.3341C156.596 86.1723 160.41 89.9906 161.234 90.5343C161.586 90.7671 161.907 90.9977 161.946 91.0451C162.117 91.2551 164.158 92.5959 164.309 92.5959C164.399 92.5959 164.554 92.6927 164.651 92.8101C164.747 92.9275 164.964 93.0243 165.13 93.0243C165.297 93.0243 165.61 93.1169 165.824 93.2281C166.041 93.3414 166.521 93.4773 166.893 93.5309C167.264 93.5844 167.637 93.6812 167.719 93.7471C167.8 93.811 168.312 93.9078 168.858 93.9613C169.402 94.0149 169.937 94.1281 170.046 94.2146C170.329 94.4391 176.857 94.5174 177.965 94.3094C178.435 94.2208 179.139 94.0952 179.53 94.0293C180.41 93.881 181.683 93.4959 182.187 93.2261C182.393 93.1149 182.69 93.0222 182.846 93.0222C183.001 93.0222 183.207 92.9275 183.303 92.8101C183.402 92.6927 183.59 92.5959 183.721 92.5959C183.853 92.5959 184.086 92.5011 184.238 92.3879C184.391 92.2725 184.589 92.1757 184.679 92.1737C184.838 92.1696 186.174 91.3499 186.537 91.0368C187.286 90.3881 188.85 91.2551 188.854 92.322C188.856 92.6721 188.963 92.9295 189.194 93.1478L189.531 93.465L196.482 93.4609L203.431 93.4547L203.845 93.0613C204.903 92.0583 204.805 95.9817 204.805 54.8684V18.1272H196.832H188.858L188.823 31.2624ZM110.9 41.6143C110.743 41.6851 110.031 41.7475 109.316 41.7535C108.55 41.7595 107.767 41.8509 107.411 41.9766C107.077 42.0944 106.573 42.1901 106.291 42.1901C106.004 42.1893 105.485 42.2789 105.133 42.3893C104.781 42.4994 104.011 42.7326 103.424 42.9078C102.837 43.0821 102.186 43.3128 101.978 43.4194C101.77 43.5263 101.502 43.6143 101.385 43.6143C101.265 43.6143 100.987 43.7049 100.765 43.8159C100.33 44.033 99.4984 44.402 99.1524 44.5301C99.035 44.5738 98.8435 44.6693 98.7261 44.7429C98.6066 44.8164 97.9352 45.2145 97.2309 45.628C96.5245 46.0405 95.884 46.4283 95.8057 46.4891C95.7274 46.5499 95.087 47.0291 94.3826 47.5545C92.9781 48.6001 90.867 50.6454 89.9217 51.873C89.5901 52.3037 89.1783 52.8427 89.0032 53.0708C87.8952 54.5224 86.3135 57.8721 85.8584 59.7278C85.7698 60.0935 85.6483 60.4403 85.5906 60.4992C85.5309 60.5581 85.4835 60.7855 85.4835 61.0042C85.4835 61.2238 85.3847 61.6927 85.2632 62.0482C84.6227 63.9388 84.567 72.4787 85.189 73.6403C85.2631 73.7803 85.3703 74.2375 85.4259 74.6556C85.4815 75.0758 85.6133 75.5824 85.7183 75.7842C85.8234 75.986 85.9099 76.3094 85.914 76.505C85.916 76.7007 86.0128 76.987 86.1282 77.1373C86.2435 77.2897 86.3382 77.5863 86.3382 77.7963C86.3382 78.0085 86.433 78.2597 86.5503 78.3565C86.6677 78.4554 86.7645 78.6222 86.7645 78.7293C86.7645 78.9785 88.0558 81.4643 88.616 82.2943C88.8508 82.6423 89.0423 82.9883 89.0423 83.0625C89.0423 83.1366 89.0979 83.1984 89.1659 83.1984C89.2338 83.1984 89.4501 83.4394 89.6437 83.7318C90.9577 85.7151 94.43 88.8311 97.0867 90.4108C97.6737 90.7588 100.528 92.1448 101.146 92.3796C101.498 92.5135 101.997 92.7133 102.254 92.8245C102.511 92.9336 102.822 93.0222 102.944 93.0222C103.067 93.0222 103.37 93.1107 103.615 93.2178C104.042 93.4011 104.715 93.5659 106.342 93.8851C106.736 93.9613 107.407 94.0931 107.837 94.1796C108.972 94.4082 116.631 94.5071 117.947 94.3114C118.534 94.2229 119.484 94.0911 120.056 94.0149C120.631 93.9387 121.208 93.8213 121.339 93.7533C121.471 93.6853 121.836 93.5844 122.147 93.5309C122.705 93.432 123.858 93.0943 124.427 92.8616C125.02 92.6206 126.006 92.2849 126.348 92.2087C126.544 92.1654 126.781 92.0707 126.871 91.9986C126.964 91.9265 127.786 91.4899 128.698 91.0286C129.61 90.5693 130.572 90.0277 130.836 89.8279C131.097 89.6281 131.355 89.4634 131.404 89.4634C132.57 89.4634 138.443 83.1922 139.459 80.8629C139.531 80.6982 139.646 80.4675 139.716 80.3501C139.786 80.2327 139.955 79.8805 140.091 79.5675C140.227 79.2545 140.425 78.8158 140.534 78.5954C140.641 78.373 140.73 78.0826 140.73 77.9508C140.73 77.8169 140.816 77.5821 140.923 77.4277C141.028 77.2732 141.158 76.8716 141.209 76.5359C141.261 76.2002 141.364 75.8151 141.436 75.6812C141.807 74.9872 142.299 70.6911 142.311 68.0335C142.317 66.5923 142.037 63.0094 141.891 62.6496C141.8 62.4292 141.726 62.0678 141.726 61.8474C141.726 61.4159 141.52 60.665 140.847 58.636C140.614 57.9311 140.388 57.1785 140.346 56.9631C140.303 56.7479 140.225 56.572 140.169 56.572C140.114 56.572 139.883 56.1549 139.657 55.6458C139.43 55.1367 139.193 54.7205 139.133 54.7205C139.072 54.7205 139.02 54.6385 139.02 54.5378C139.02 54.3712 137.955 52.7411 137.28 51.873C136.477 50.8427 133.577 48.0286 133.319 48.0286C133.243 48.0286 133.184 47.9748 133.184 47.91C133.184 47.8006 132.15 47.0001 131.589 46.6753C131.089 46.3865 128.548 44.8753 128.342 44.7445C128.224 44.6702 128.033 44.5711 127.915 44.525C127.798 44.4788 127.477 44.3421 127.203 44.2218C126.089 43.7323 125.833 43.634 125.458 43.5519C125.242 43.5049 125.067 43.4034 125.067 43.3263C125.067 43.2503 124.923 43.1871 124.746 43.1871C124.571 43.1871 124.008 43.0522 123.502 42.8864C121.65 42.2849 121.286 42.1893 120.866 42.1901C120.631 42.1901 120.213 42.1185 119.941 42.0303C118.858 41.6827 111.497 41.3435 110.9 41.6143ZM218.681 42.7942C218.644 42.8932 218.63 53.9995 218.651 67.4748L218.688 91.976L219.023 92.4641C219.75 93.5227 219.301 93.4629 226.514 93.4629H232.991L233.43 93.1396C234.521 92.3323 234.426 94.9108 234.385 67.3048L234.35 42.6891L226.551 42.6523C220.387 42.6232 218.735 42.6523 218.681 42.7942ZM275.655 42.7394C275.614 42.8069 275.732 43.1752 275.917 43.5578C276.432 44.6224 277.109 46.0807 277.198 46.32C277.241 46.437 277.338 46.6292 277.41 46.7472C277.534 46.9445 277.777 47.4563 278.975 50.0516C279.216 50.577 279.416 51.0657 279.416 51.1376C279.416 51.2093 279.511 51.3485 279.63 51.4459C279.748 51.5433 279.842 51.7474 279.842 51.9004C279.842 52.0532 279.939 52.2738 280.056 52.3916C280.174 52.5088 280.271 52.7205 280.271 52.8624C280.271 53.0033 280.365 53.199 280.485 53.2964C280.6 53.3938 280.697 53.5612 280.697 53.6681C280.697 53.7748 280.882 54.231 281.109 54.683C282.176 56.8078 282.975 58.5506 282.975 58.753C282.975 58.8751 283.035 59.0119 283.107 59.0553C283.292 59.1717 283.83 60.3199 283.83 60.6035C283.83 60.7351 283.879 60.8436 283.937 60.8436C283.996 60.8436 284.194 61.1793 284.375 61.591C284.773 62.4889 285.64 64.3274 285.912 64.852C286.021 65.0596 286.107 65.3323 286.107 65.4569C286.107 65.5825 286.157 65.6842 286.216 65.6842C286.352 65.6842 286.962 67.0033 286.962 67.2981C286.962 67.4194 287.022 67.5551 287.092 67.5987C287.226 67.6807 287.378 67.9857 288.311 70.0279C288.597 70.654 288.892 71.2616 288.966 71.381C289.04 71.4984 289.137 71.6899 289.184 71.8073C289.345 72.2151 289.709 73.0183 289.833 73.2304C289.899 73.3478 289.989 73.5414 290.033 73.6588C290.173 74.0336 290.55 74.8615 290.679 75.0819C290.751 75.1993 290.875 75.4567 290.957 75.6524C291.04 75.848 291.303 76.4247 291.542 76.9334C291.781 77.4421 292.166 78.2762 292.401 78.7849C292.634 79.2936 292.883 79.8064 292.955 79.9238C293.027 80.0412 293.151 80.2966 293.231 80.4922C293.484 81.1183 293.684 81.5549 293.814 81.7753C293.884 81.8927 294.008 82.148 294.09 82.3437C294.172 82.5394 294.436 83.1016 294.673 83.5938C295.214 84.708 295.26 85.8078 294.809 86.7984C294.644 87.1588 294.508 87.5213 294.508 87.6037C294.508 87.6881 294.444 87.754 294.366 87.754C294.288 87.754 294.224 87.8281 294.224 87.9167C294.224 88.0053 294.086 88.376 293.919 88.7364C293.752 89.0968 293.517 89.6158 293.4 89.8918C293.283 90.1636 293.13 90.4849 293.062 90.6023C292.996 90.7197 292.906 90.9112 292.862 91.0286C292.72 91.4076 292.346 92.2334 292.214 92.4538C292.144 92.5712 292.049 92.7627 292.004 92.8801C291.96 92.9975 291.8 93.3579 291.649 93.6792C291.499 94.0005 291.378 94.3382 291.378 94.4268C291.378 94.5153 291.312 94.5895 291.233 94.5895C291.155 94.5895 291.091 94.6904 291.091 94.816C291.091 94.9416 291.001 95.2135 290.887 95.4215C290.776 95.6295 290.543 96.1197 290.373 96.511C290.202 96.9023 290.004 97.3183 289.934 97.4378C289.866 97.5551 289.773 97.7467 289.728 97.8641C289.685 97.9815 289.47 98.4613 289.252 98.9329C289.036 99.4025 288.713 100.107 288.538 100.498C288.119 101.433 287.899 101.921 287.528 102.739C287.36 103.112 287.164 103.451 287.092 103.497C287.022 103.54 286.962 103.684 286.962 103.814C286.962 103.946 286.764 104.471 286.523 104.982C286.282 105.492 285.901 106.294 285.679 106.763C285.457 107.233 285.137 107.939 284.968 108.33C284.799 108.722 284.468 109.459 284.231 109.968C283.992 110.476 283.7 111.117 283.578 111.391C283.459 111.665 283.306 111.986 283.238 112.103C283.171 112.221 283.08 112.412 283.035 112.53C282.989 112.647 282.829 113.008 282.68 113.329C282.53 113.65 282.406 113.988 282.406 114.076C282.406 114.165 282.351 114.239 282.283 114.239C281.791 114.239 281.846 116.591 282.351 117.273C282.971 118.103 282.779 118.084 290.103 118.084H296.831L297.307 117.72C297.624 117.479 297.974 116.947 298.361 116.119C298.956 114.847 299.01 114.733 299.778 113.028C300.025 112.48 300.421 111.615 300.656 111.107C300.89 110.598 301.164 109.988 301.263 109.754C301.364 109.519 301.589 109.006 301.764 108.615C301.939 108.223 302.18 107.678 302.303 107.404C302.425 107.13 302.579 106.811 302.647 106.691C302.715 106.576 302.81 106.382 302.857 106.265C303.047 105.81 303.805 104.131 304.678 102.238C304.958 101.631 305.189 101.089 305.189 101.038C305.189 100.984 305.483 100.329 305.841 99.5817C306.861 97.4625 307.04 97.0629 307.04 96.8879C307.04 96.7973 307.104 96.7252 307.182 96.7252C307.26 96.7252 307.324 96.6222 307.324 96.4986C307.324 96.373 307.417 96.1011 307.53 95.8931C307.646 95.6851 307.874 95.195 308.041 94.8037C308.445 93.8501 309.168 92.2911 309.33 92.0275C309.402 91.908 309.497 91.7165 309.54 91.5991C309.584 91.4817 309.717 91.1604 309.839 90.8865C309.958 90.6126 310.142 90.1966 310.245 89.9618C310.35 89.727 310.652 89.0535 310.922 88.4666C311.192 87.8796 311.528 87.1094 311.672 86.7572C311.816 86.405 312.018 86.0158 312.121 85.8922C312.224 85.7686 312.308 85.5359 312.308 85.3753C312.308 85.2146 312.403 85.0046 312.52 84.9057C312.638 84.8089 312.734 84.6359 312.734 84.5206C312.734 84.4053 312.821 84.1396 312.926 83.9316C313.033 83.7236 313.219 83.3302 313.34 83.0563C313.464 82.7824 313.801 82.0451 314.094 81.419C314.386 80.7929 314.722 80.0556 314.839 79.7796C314.959 79.5078 315.109 79.1865 315.177 79.0691C315.245 78.9517 315.336 78.7602 315.381 78.6428C315.426 78.5233 315.585 78.165 315.735 77.8437C315.886 77.5204 316.009 77.1847 316.009 77.0961C316.009 77.0076 316.073 76.9334 316.151 76.9334C316.229 76.9334 316.293 76.8222 316.293 76.6883C316.293 76.5545 316.619 75.7698 317.018 74.9439C317.739 73.4508 318.023 72.8329 318.363 72.0215C318.46 71.7867 318.734 71.1771 318.971 70.6684C319.362 69.8226 320.097 68.2232 320.672 66.9657C320.795 66.6924 320.979 66.2753 321.078 66.0405C321.411 65.2433 322.157 63.621 322.289 63.4064C322.361 63.2886 322.455 63.0965 322.499 62.9793C322.595 62.7196 322.84 62.1481 323.263 61.1989C323.438 60.8078 323.681 60.2626 323.802 59.9893C323.926 59.715 324.08 59.3945 324.146 59.2767C324.214 59.1598 324.305 58.9674 324.346 58.8496C324.389 58.7324 324.608 58.2515 324.832 57.7815C325.057 57.3118 325.281 56.7837 325.332 56.607C325.384 56.4309 325.485 56.2865 325.559 56.2865C325.631 56.2865 325.691 56.1815 325.691 56.0534C325.691 55.9251 325.814 55.556 325.963 55.235C326.113 54.9129 326.344 54.3934 326.473 54.0798C326.605 53.7663 326.894 53.1256 327.116 52.6557C327.997 50.7897 328.379 49.9363 328.467 49.6305C328.517 49.4536 328.611 49.31 328.675 49.31C328.739 49.31 328.836 49.0855 328.885 48.8112C328.939 48.5369 329.033 48.313 329.101 48.313C329.167 48.313 329.264 48.1406 329.318 47.9295C329.369 47.7192 329.602 47.1683 329.83 46.7052C330.576 45.2034 330.391 43.8596 329.324 43.0197L328.904 42.6891H321.938C315.886 42.6891 314.959 42.7163 314.872 42.9027C314.815 43.0197 314.666 43.3572 314.539 43.652C314.411 43.9467 314.215 44.3952 314.1 44.649C313.534 45.897 313.303 46.4601 313.303 46.5968C313.303 46.6796 313.239 46.7472 313.163 46.7472C313.083 46.7472 313.019 46.8522 313.019 46.9803C313.019 47.1982 312.677 48.0183 312.22 48.9043C312.11 49.1127 312.022 49.3767 312.022 49.4921C312.022 49.6074 311.927 49.7816 311.81 49.879C311.692 49.9765 311.596 50.1447 311.596 50.2524C311.596 50.4225 311.328 51.0624 310.531 52.7984C310.422 53.0334 310.294 53.3699 310.243 53.5458C310.193 53.7219 310.098 53.8662 310.03 53.8662C309.965 53.8662 309.864 54.0722 309.808 54.3243C309.752 54.5761 309.658 54.8803 309.596 55.0008C309.159 55.8448 308.889 56.4659 308.889 56.6301C308.889 56.7351 308.795 56.9017 308.677 56.9991C308.56 57.0965 308.463 57.264 308.463 57.3715C308.463 57.5416 308.158 58.2703 307.396 59.9174C307.287 60.1524 307.063 60.665 306.894 61.0572C305.872 63.4552 305.648 63.896 305.294 64.2164C304.468 64.9614 303.123 65.199 302.371 64.7334C301.743 64.3454 301.059 63.6525 301.059 63.4064C301.059 63.281 301.002 63.1177 300.932 63.0433C300.862 62.9692 300.662 62.5557 300.489 62.125C300.316 61.6935 300.083 61.1332 299.976 60.8786C299.867 60.624 299.675 60.1755 299.552 59.8824C299.426 59.5885 299.235 59.1665 299.125 58.9451C299.014 58.7231 298.919 58.4667 298.917 58.3755C298.915 58.284 298.79 57.9525 298.639 57.6398C298.487 57.3262 298.361 56.9948 298.359 56.9034C298.355 56.8119 298.263 56.5557 298.153 56.3343C298.042 56.1123 297.84 55.6749 297.702 55.3612C297.566 55.0478 297.371 54.6214 297.264 54.4138C297.159 54.2062 297.072 53.9389 297.072 53.8201C297.072 53.7013 296.984 53.4228 296.876 53.2016C296.687 52.8136 296.388 52.1354 296.009 51.2323C295.911 50.9973 295.694 50.5097 295.525 50.1482C295.359 49.7876 295.221 49.3914 295.221 49.2674C295.221 49.1436 295.163 49.0068 295.093 48.9632C295.025 48.9205 294.926 48.7086 294.877 48.4926C294.825 48.2763 294.697 47.9073 294.59 47.6723C294.481 47.4375 294.286 46.9889 294.15 46.6753C294.016 46.3627 293.816 45.9244 293.709 45.7032C293.6 45.481 293.513 45.2375 293.513 45.1615C293.513 44.4797 292.428 43.024 291.719 42.7548C291.266 42.5831 275.76 42.5678 275.655 42.7394ZM182.216 52.2942C182.832 52.3712 183.409 52.4925 183.497 52.5642C183.588 52.6361 183.932 52.7403 184.265 52.7949C184.597 52.8497 184.871 52.953 184.871 53.0247C184.871 53.0956 184.99 53.1547 185.134 53.1547C185.548 53.1547 187.896 54.4019 188.609 55.0016C188.841 55.1981 188.858 55.9644 188.858 67.3903V79.5696L188.508 79.9464C188.127 80.3563 186.638 81.522 186.294 81.6805C186.176 81.7341 185.888 81.9071 185.653 82.0636C185.419 82.2201 185.05 82.4261 184.834 82.5208C184.619 82.6135 184.442 82.7391 184.442 82.7947C184.442 82.8545 184.218 82.943 183.944 82.9945C183.668 83.046 183.413 83.1387 183.371 83.2025C183.334 83.2643 183.032 83.3611 182.698 83.4167C182.364 83.4703 182.012 83.5815 181.913 83.6597C181.477 84.014 176.571 84.0057 176.145 83.6515C176.048 83.5732 175.729 83.4641 175.434 83.4085C175.142 83.3529 174.866 83.252 174.82 83.1819C174.779 83.1119 174.633 83.0563 174.499 83.0563C174.365 83.0563 173.914 82.8318 173.498 82.5579C173.082 82.2819 172.681 82.0595 172.606 82.0595C172.176 82.0595 168.922 78.2968 168.922 77.8004C168.922 77.7345 168.827 77.6007 168.708 77.5039C168.592 77.405 168.496 77.2011 168.496 77.0467C168.496 76.8963 168.399 76.6739 168.282 76.5565C168.164 76.4391 168.065 76.2044 168.063 76.0334C168.061 75.8625 167.966 75.5989 167.851 75.4464C167.736 75.294 167.641 75.0181 167.641 74.8348C167.641 74.6494 167.552 74.3261 167.443 74.114C167.336 73.9018 167.2 73.3128 167.143 72.8041C167.087 72.2954 166.98 71.8053 166.908 71.7167C166.5 71.208 166.939 63.3391 167.443 62.1557C167.552 61.8987 167.641 61.5125 167.641 61.2971C167.641 61.0827 167.73 60.7804 167.837 60.6257C167.944 60.471 168.078 60.137 168.133 59.8824C168.187 59.6279 168.292 59.4195 168.364 59.4195C168.436 59.4195 168.496 59.2673 168.496 59.0811C168.496 58.8949 168.592 58.6624 168.708 58.565C168.827 58.4676 168.922 58.3044 168.922 58.2019C168.922 58.0995 169.002 57.931 169.101 57.8277C169.2 57.7245 169.459 57.3614 169.68 57.0214C170.277 56.1055 172.044 54.3951 172.886 53.9235C173.29 53.6963 173.622 53.4621 173.622 53.4032C173.622 53.3452 173.702 53.2947 173.799 53.292C173.898 53.2896 174.233 53.1631 174.546 53.012C174.86 52.8608 175.247 52.7343 175.407 52.7317C175.568 52.7292 175.764 52.6633 175.842 52.5848C176.124 52.3037 179.701 51.8945 180.527 52.0491C180.84 52.1072 181.6 52.2182 182.216 52.2942ZM115.859 56.5471C115.95 56.6214 116.31 56.7291 116.66 56.7864C117.01 56.8445 117.393 56.9452 117.515 57.0111C117.634 57.0768 118.085 57.2982 118.516 57.5039C120.017 58.219 120.524 58.5753 121.657 59.7022C122.61 60.6539 123.502 61.7234 123.502 61.9209C123.502 61.9815 123.586 62.1318 123.689 62.2558C124.845 63.6338 125.839 69.3442 125.088 70.2936C125.018 70.3821 124.919 70.7117 124.865 71.0247C124.814 71.3378 124.684 71.7867 124.579 72.0215C124.472 72.2563 124.241 72.7691 124.064 73.1604C123.788 73.7659 123.343 74.4867 122.717 75.3414C122.443 75.7183 120.452 77.6439 120.336 77.6439C120.275 77.6439 119.957 77.8375 119.634 78.0723C119.309 78.3071 118.934 78.4986 118.798 78.4986C118.662 78.4986 118.473 78.5954 118.376 78.7128C118.277 78.8302 118.114 78.927 118.013 78.927C117.91 78.927 117.647 79.0176 117.424 79.1268C116.242 79.7137 112.187 79.9423 110.686 79.5078C109.355 79.1227 107.411 78.1876 106.556 77.5183C105.347 76.5751 103.566 74.633 103.566 74.2602C103.566 74.184 103.471 74.0398 103.352 73.943C103.236 73.8462 103.14 73.6526 103.14 73.5167C103.14 73.3787 103.043 73.1851 102.925 73.0883C102.808 72.9915 102.711 72.7959 102.711 72.6558C102.711 72.5137 102.625 72.2172 102.516 71.9968C101.533 69.9826 101.543 65.7782 102.536 64.0208C102.633 63.8498 102.711 63.6132 102.711 63.4946C102.711 63.2544 103.282 62.2224 103.455 62.1481C103.516 62.1225 103.566 62.02 103.566 61.9209C103.566 61.8219 103.679 61.6064 103.815 61.4425C103.953 61.2784 104.225 60.9359 104.421 60.6813C104.96 59.9815 105.421 59.5218 106.13 58.9861C106.482 58.7196 106.803 58.4556 106.845 58.3994C106.886 58.3438 107.077 58.2301 107.271 58.1473C107.465 58.0645 107.736 57.9321 107.874 57.8534C108.01 57.7747 108.235 57.6466 108.371 57.568C108.509 57.4895 108.783 57.3604 108.978 57.28C109.174 57.2008 109.46 57.0735 109.619 56.9983C109.775 56.9229 110.191 56.7915 110.543 56.7061C110.896 56.6206 111.408 56.4941 111.682 56.4249C112.306 56.2678 115.632 56.3652 115.859 56.5471Z" fill="#091928"/>
</svg>
