<svg width="150" height="54" viewBox="0 0 150 54" fill="none" xmlns="http://www.w3.org/2000/svg">
<path fill-rule="evenodd" clip-rule="evenodd" d="M24.2816 0.0935642C24.1432 0.136732 23.939 0.274791 23.8278 0.400405C23.4361 0.843748 23.2689 1.05336 23.2689 1.1012C23.2689 1.12803 23.1231 1.34232 22.945 1.5776C22.7669 1.81327 22.621 2.03339 22.621 2.06644C22.621 2.09989 22.5771 2.14422 22.5238 2.16483C22.4701 2.18506 22.4266 2.23328 22.4266 2.27178C22.4266 2.30989 22.2877 2.52923 22.1186 2.75868C21.9494 2.98813 21.6647 3.38403 21.4866 3.63876C21.3085 3.89348 21.1261 4.14005 21.0814 4.18632C21.037 4.23299 21.0005 4.29988 21.0005 4.33488C21.0005 4.37027 20.9787 4.40877 20.9519 4.42044C20.925 4.4325 20.8158 4.57328 20.7088 4.73389C20.6019 4.89412 20.4922 5.05473 20.465 5.09051C20.4082 5.16479 19.9166 5.85859 19.4632 6.50377C19.2928 6.74644 19.1241 6.97978 19.0879 7.02256C19.0521 7.06495 18.9063 7.27456 18.7639 7.48846C18.6216 7.70235 18.4898 7.89213 18.4707 7.91002C18.3863 7.98975 17.9542 8.62832 17.9542 8.67343C17.9542 8.70104 17.8737 8.81382 17.7757 8.92388C17.6777 9.03394 17.5685 9.17005 17.5327 9.22644C17.3977 9.44033 17.0722 9.9004 16.8054 10.2547C16.653 10.4569 16.5282 10.6378 16.5282 10.6568C16.5282 10.6755 16.3897 10.8785 16.2202 11.1075C16.051 11.337 15.8686 11.589 15.8153 11.6683C15.7616 11.7473 15.5722 12.0133 15.3937 12.2591C15.2156 12.5052 14.9387 12.8976 14.7781 13.131C14.4997 13.5366 13.8677 14.4167 13.7569 14.5536C13.7281 14.5893 13.634 14.7352 13.548 14.8775C13.4621 15.0202 13.3536 15.1602 13.3069 15.1886C13.2606 15.2174 13.2225 15.2695 13.2225 15.3049C13.2225 15.3403 13.1918 15.4045 13.1545 15.4476C13.1171 15.4904 12.9437 15.73 12.7695 15.9797C12.5952 16.2289 12.407 16.4844 12.3514 16.5467C12.2958 16.6089 12.2503 16.6766 12.2503 16.6964C12.2503 16.7162 12.1554 16.8589 12.0395 17.013C11.9236 17.1673 11.7852 17.3583 11.7319 17.438C11.6782 17.5174 11.5452 17.7029 11.4359 17.8503C11.3266 17.998 11.1264 18.287 10.991 18.4927C10.5827 19.1138 11.1454 19.0582 5.23573 19.0582H0V30.3265V41.5948L0.19406 41.8627C0.553013 42.3582 0.337952 42.3384 5.23262 42.3294C10.2887 42.3205 10.0378 42.3528 10.3676 41.6698C10.4995 41.3976 10.5002 41.3315 10.5002 32.082C10.5002 24.5311 10.5162 22.7554 10.5842 22.699C10.6768 22.6224 10.7872 22.7227 11.2477 23.3038C11.3893 23.4819 11.5339 23.6592 11.5697 23.6981C11.6934 23.8323 12.2184 24.4553 12.3152 24.5825C12.3685 24.6529 12.4852 24.7925 12.5742 24.8928C12.8686 25.2237 12.995 25.3727 13.4189 25.886C13.6495 26.1657 13.9455 26.5098 14.0769 26.651C14.208 26.7922 14.4254 27.052 14.5599 27.2285C14.6945 27.4047 14.8279 27.5494 14.8563 27.5494C14.8847 27.5494 14.9076 27.5793 14.9076 27.6162C14.9076 27.6532 14.9881 27.7629 15.0861 27.8605C15.1841 27.9581 15.4291 28.2416 15.6306 28.4905C15.8324 28.739 16.0801 29.0334 16.1817 29.1438C16.4523 29.439 16.6573 29.6805 16.9458 30.0445C17.087 30.223 17.2332 30.4008 17.2706 30.44C17.3433 30.5163 17.8002 31.0479 18.1569 31.4706C18.277 31.6133 18.438 31.8027 18.5146 31.8918C18.6375 32.0349 18.762 32.1839 19.3255 32.864C19.3994 32.9535 19.5884 33.172 19.7455 33.3502C20.1504 33.8098 20.1721 33.8363 20.4187 34.1606C20.5408 34.3208 20.6754 34.4741 20.7178 34.5009C20.7605 34.5277 20.9507 34.7459 21.1409 34.9859C21.331 35.2258 21.5302 35.4685 21.5838 35.5257C21.6371 35.5824 21.7394 35.7003 21.8106 35.787C22.2932 36.375 22.5362 36.6659 22.621 36.7565C22.7462 36.8911 23.0387 37.2337 23.3661 37.6292C23.5089 37.8015 23.8161 38.1632 24.0487 38.4334C24.2816 38.7033 24.5387 39.0121 24.6196 39.1191C24.7008 39.226 24.9089 39.4737 25.0816 39.6697C25.2542 39.8658 25.5164 40.1722 25.6638 40.3503C25.9838 40.7373 26.4384 41.2654 26.5777 41.4116C26.6329 41.4696 26.799 41.6652 26.9471 41.846C27.1334 42.0743 27.2932 42.1984 27.4675 42.2505C27.8124 42.3539 38.0459 42.3621 38.4534 42.2594C39.3304 42.0389 39.3926 40.8244 38.5666 40.0586C38.5472 40.0408 38.4006 39.8661 38.2407 39.6705C37.9665 39.3349 37.7075 39.0292 37.5605 38.8667C37.5248 38.8274 37.3058 38.5637 37.0744 38.2814C36.843 37.999 36.5498 37.649 36.423 37.5036C36.2962 37.3581 36.1325 37.1606 36.0598 37.0641C35.9867 36.9681 35.779 36.7203 35.5978 36.5135C35.2781 36.1487 34.981 35.7936 34.5796 35.2962C34.4727 35.164 34.3027 34.9637 34.202 34.8509C34.1013 34.7385 33.9554 34.5639 33.8777 34.4628C33.8003 34.3617 33.7066 34.245 33.6696 34.2034C33.5821 34.1054 32.9105 33.3015 32.6099 32.9348C32.4811 32.7777 32.2591 32.5121 32.1163 32.3445C31.5575 31.6876 31.5007 31.6184 31.5007 31.597C31.5007 31.5849 31.3969 31.464 31.2697 31.3283C31.1425 31.1926 30.9022 30.9067 30.7358 30.6928C30.4581 30.3354 30.2107 30.0391 30.0392 29.8575C30.0019 29.8178 29.8561 29.6397 29.7153 29.4612C29.5741 29.2831 29.382 29.0497 29.2879 28.9428C29.0829 28.7098 28.7045 28.2622 28.3794 27.8686C27.7494 27.1064 27.3862 26.6712 27.3547 26.6417C27.2734 26.5654 26.6496 25.8075 26.4478 25.5399C26.3272 25.3793 26.1965 25.2191 26.158 25.1833C26.1192 25.1479 25.8983 24.8881 25.6669 24.6062C25.4355 24.3246 25.1982 24.0434 25.1395 23.9816C25.0812 23.9198 24.9101 23.7129 24.7592 23.5215C24.6083 23.3306 24.359 23.0284 24.2046 22.8499C24.0506 22.6718 23.8184 22.3945 23.6889 22.2343C23.559 22.0737 23.3024 21.7711 23.118 21.5611C22.9337 21.3511 22.6704 21.0303 22.5327 20.8483C22.3955 20.6659 22.264 20.5014 22.2411 20.4831C21.9218 20.2241 21.7787 19.9802 21.8584 19.8309C21.9428 19.6738 22.1547 19.3417 22.2485 19.2203C22.5584 18.8198 22.7505 18.5347 22.7505 18.4768C22.7505 18.4379 22.7941 18.3893 22.8477 18.3687C22.901 18.3484 22.945 18.3025 22.945 18.2675C22.945 18.2325 22.9959 18.1369 23.0585 18.0552C23.1208 17.9735 23.2156 17.8405 23.2689 17.7596C23.3226 17.6791 23.4548 17.4932 23.5625 17.347C23.6707 17.2012 23.8484 16.9503 23.9573 16.7897C24.8004 15.5476 25.0582 15.1727 25.206 14.9747C25.2994 14.8495 25.4048 14.699 25.4405 14.6395C25.584 14.4003 26.0184 13.7695 26.102 13.6785C26.1514 13.6249 26.314 13.4001 26.4641 13.1788C27.2092 12.079 27.5157 11.6341 27.5491 11.6046C27.5697 11.5867 27.6565 11.4552 27.7428 11.3129C27.8288 11.1702 27.9225 11.0243 27.9509 10.9885C28.1593 10.7268 28.4545 10.3087 28.4545 10.2745C28.4545 10.252 28.5801 10.068 28.7341 9.86579C28.8881 9.66356 29.1421 9.30111 29.2988 9.06038C29.4555 8.81965 29.6068 8.62287 29.6348 8.62287C29.6628 8.62287 29.6857 8.57815 29.6857 8.5237C29.6857 8.46887 29.727 8.40859 29.7771 8.38914C29.8277 8.37009 29.8849 8.29075 29.9047 8.21297C29.9249 8.13558 30.0147 7.99286 30.105 7.89641C30.1952 7.79996 30.2691 7.70391 30.2691 7.68329C30.2691 7.62963 30.5514 7.23373 30.6074 7.20845C30.6327 7.19717 30.7198 7.05484 30.8011 6.89266C30.882 6.73049 30.985 6.58349 31.0302 6.56638C31.0749 6.54888 31.1118 6.50649 31.1118 6.47227C31.1118 6.43765 31.2429 6.23854 31.4035 6.03009C31.5637 5.82164 31.6952 5.62447 31.6952 5.59141C31.6952 5.55874 31.7535 5.47902 31.8247 5.41446C31.8962 5.34991 31.9546 5.27135 31.9546 5.23946C31.9546 5.20796 31.9845 5.1469 32.0211 5.10373C32.058 5.06096 32.2027 4.86495 32.3435 4.66895C32.4839 4.47294 32.6215 4.28355 32.6495 4.24777C32.7083 4.17271 33.446 3.08263 33.5424 2.92785C33.5782 2.87107 33.7311 2.65835 33.8827 2.45534C34.0344 2.25234 34.1581 2.054 34.1581 2.01433C34.1581 1.97505 34.2001 1.92644 34.2514 1.907C34.3027 1.88716 34.3634 1.78644 34.386 1.68299C34.4089 1.57915 34.4544 1.47804 34.4871 1.45743C34.5641 1.41037 34.5656 0.863971 34.4894 0.816914C34.4579 0.797469 34.4124 0.704134 34.3887 0.61002C34.3303 0.377849 34.1258 0.220345 33.7268 0.101731C33.2881 -0.0289387 24.7008 -0.0359388 24.2816 0.0935642ZM101.535 7.56274C99.4976 8.34598 98.5187 10.0404 98.8516 12.2077C98.8909 12.464 98.9457 12.7032 98.9733 12.7386C99.0009 12.7744 99.0457 12.8766 99.0729 12.9657C99.1371 13.1773 99.6679 13.9959 99.8561 14.1736C100.136 14.4381 100.758 14.8919 100.903 14.9378C100.983 14.9631 101.048 15.0074 101.048 15.037C101.048 15.0661 101.158 15.1105 101.292 15.1357C101.425 15.1606 101.555 15.2151 101.581 15.2563C101.661 15.3854 103.755 15.3481 103.998 15.2135C104.105 15.154 104.227 15.105 104.27 15.105C104.7 15.1027 106.045 13.8563 106.299 13.2247C106.335 13.1356 106.408 12.9855 106.461 12.8906C106.514 12.7961 106.558 12.6612 106.558 12.5908C106.558 12.5204 106.602 12.3582 106.655 12.2303C106.719 12.0782 106.752 11.7819 106.752 11.3774C106.752 10.973 106.719 10.6766 106.655 10.525C106.602 10.397 106.558 10.245 106.558 10.1866C106.557 10.1287 106.514 9.99762 106.46 9.89573C106.407 9.79345 106.364 9.68223 106.364 9.64801C106.364 9.20427 104.62 7.65063 104.122 7.65063C104.08 7.65063 103.961 7.60707 103.859 7.55379C103.594 7.41573 101.9 7.42195 101.535 7.56274ZM120.753 7.5324C120.628 7.56662 120.365 7.61874 120.169 7.64752C119.746 7.70935 118.789 7.9983 118.322 8.20481C117.695 8.48209 117.476 8.58554 117.447 8.61859C117.429 8.63881 117.278 8.72204 117.112 8.80332C116.945 8.8846 116.799 8.9721 116.788 8.99777C116.764 9.04949 116.368 9.33572 116.32 9.33572C116.238 9.33572 115.354 10.18 114.919 10.672C114.595 11.0399 114.495 11.1791 114.402 11.3938C114.367 11.4739 114.309 11.5396 114.273 11.5396C114.236 11.5396 114.206 11.566 114.206 11.5987C114.206 11.6314 114.104 11.813 113.979 12.0024C113.855 12.1918 113.753 12.3816 113.753 12.424C113.753 12.4667 113.704 12.5986 113.644 12.7172C113.585 12.8362 113.497 13.0104 113.45 13.1053C113.402 13.1998 113.364 13.3122 113.364 13.3546C113.364 13.3974 113.324 13.5241 113.277 13.6362C113.136 13.9655 112.984 14.5298 112.947 14.86C112.928 15.0284 112.885 15.2182 112.852 15.2812C112.652 15.6541 112.524 40.5988 112.717 41.4595C112.804 41.8487 113.168 42.1956 113.493 42.1999C115.846 42.2303 119.289 42.1801 119.369 42.1144C119.574 41.9475 119.75 41.7297 119.79 41.594C119.814 41.5162 119.836 37.5584 119.84 32.7995C119.844 27.4801 119.871 24.1088 119.909 24.0493C119.96 23.9684 120.247 23.9466 121.609 23.9194L123.248 23.8871V21.4888V19.0908L121.609 19.0582C120.249 19.0313 119.959 19.0092 119.905 18.9287C119.762 18.7124 119.936 16.0248 120.104 15.8564C120.14 15.821 120.17 15.7463 120.171 15.6911C120.184 15.0716 121.519 13.6785 122.1 13.6785C122.135 13.6785 122.247 13.635 122.35 13.5817C122.452 13.5284 122.652 13.4841 122.794 13.4829C122.937 13.4818 123.171 13.451 123.313 13.4145C123.456 13.3779 123.703 13.3437 123.864 13.3386C124.259 13.3258 126.65 13.563 126.991 13.649L127.17 13.6937V10.8003V7.90652L126.991 7.83458C126.893 7.79452 126.507 7.73541 126.132 7.70274C125.758 7.67007 125.258 7.60124 125.021 7.54951C124.518 7.44023 121.135 7.42662 120.753 7.5324ZM85.6065 13.8893L85.5898 19.8686L85.4393 19.89C85.3565 19.9017 85.1084 19.8227 84.8882 19.7146C84.6681 19.6065 84.4075 19.4992 84.3092 19.4755C84.2108 19.4521 84.1143 19.407 84.0949 19.3751C84.075 19.3436 83.9953 19.3164 83.9172 19.3152C83.839 19.3141 83.6585 19.2569 83.5158 19.1881C83.3731 19.1192 83.202 19.0617 83.1355 19.0605C83.069 19.0593 82.8796 19.0162 82.7143 18.9652C80.7208 18.3461 77.1002 18.476 75.4038 19.2269C75.2918 19.2767 75.1701 19.3176 75.1339 19.3176C75.0973 19.3176 74.9853 19.36 74.8842 19.4117C74.7835 19.4634 74.5696 19.5672 74.409 19.6427C74.2488 19.7181 74.0298 19.8356 73.9229 19.904C73.8159 19.9725 73.6701 20.0596 73.5989 20.0973C73.3037 20.2533 72.8468 20.5527 72.7562 20.6488C72.7208 20.6869 72.5466 20.8331 72.3688 20.9739C71.6999 21.5047 70.7992 22.4793 70.3773 23.1288C70.2455 23.3318 70.1109 23.5293 70.0782 23.567C70.0459 23.6052 69.9818 23.7071 69.9359 23.7938C69.89 23.8809 69.8352 23.9664 69.8138 23.9843C69.7298 24.0543 69.0943 25.4186 69.0943 25.529C69.0943 25.5625 69.0508 25.6733 68.9975 25.7756C68.9442 25.8779 68.9003 26.0214 68.9003 26.0945C68.8999 26.168 68.8571 26.2847 68.8046 26.3539C68.7521 26.4231 68.7085 26.5713 68.7074 26.6829C68.7062 26.7949 68.6619 26.9699 68.6086 27.0718C68.5553 27.1741 68.5114 27.381 68.5114 27.5319C68.511 27.6824 68.4694 27.9157 68.4188 28.0503C68.0972 28.9058 68.2224 32.7863 68.6121 34.0397C68.6634 34.205 68.7062 34.4091 68.7077 34.4931C68.7089 34.5775 68.7517 34.7195 68.8026 34.8085C68.8536 34.898 68.8971 35.029 68.8995 35.1002C68.9022 35.1718 68.9605 35.3468 69.0294 35.4891C69.0982 35.6318 69.1558 35.7808 69.1569 35.8204C69.1581 35.8601 69.246 36.0643 69.3525 36.2743C69.4591 36.4843 69.5466 36.6772 69.547 36.7032C69.5485 36.7783 70.3407 38.0659 70.4555 38.1791C70.4733 38.197 70.5756 38.3428 70.6822 38.5031C70.9365 38.885 72.6733 40.6229 73.0478 40.8703C73.2085 40.9764 73.3543 41.0811 73.3722 41.1028C73.4504 41.1989 74.3798 41.8087 74.4475 41.8087C74.4891 41.8087 74.5591 41.8526 74.6034 41.9059C74.6478 41.9596 74.7462 42.0035 74.822 42.0035C74.8978 42.0039 75.0402 42.0459 75.1378 42.0969C75.2358 42.1478 75.4547 42.2096 75.6239 42.2341C75.7935 42.2586 75.9626 42.303 76 42.3325C76.0373 42.3617 76.2706 42.4056 76.5184 42.4301C76.7665 42.4546 77.0099 42.5064 77.0593 42.546C77.188 42.6479 80.16 42.6837 80.664 42.5888C80.8779 42.5488 81.1988 42.4912 81.3769 42.4613C81.777 42.394 82.3565 42.2186 82.586 42.0953C82.6805 42.0447 82.8154 42.0031 82.8858 42.0031C82.9562 42.0031 83.0503 41.9596 83.0946 41.9059C83.139 41.8526 83.2245 41.8087 83.2844 41.8087C83.3447 41.8087 83.4505 41.7659 83.5197 41.7138C83.5889 41.6613 83.6795 41.6177 83.7208 41.6166C83.7927 41.6146 84.4013 41.2417 84.5662 41.0989C84.9073 40.8034 85.619 41.1985 85.6213 41.6842C85.6221 41.8433 85.6707 41.9611 85.7761 42.0603L85.9293 42.2042L89.093 42.2023L92.2567 42.1999L92.4453 42.0206C92.9268 41.5637 92.8816 43.3503 92.8816 24.635V7.91002H89.2524H85.6229L85.6065 13.8893ZM50.1355 18.6016C50.064 18.6339 49.7396 18.6623 49.4145 18.665C49.0661 18.6677 48.7098 18.7093 48.5473 18.7665C48.396 18.8202 48.1662 18.8637 48.037 18.8637C47.9075 18.8633 47.6707 18.9042 47.5105 18.9543C47.3499 19.0045 46.9999 19.1107 46.7327 19.1904C46.4651 19.2697 46.1692 19.3747 46.0743 19.4233C45.9798 19.472 45.8581 19.512 45.804 19.512C45.7503 19.512 45.6236 19.5532 45.5224 19.6038C45.3245 19.7026 44.9453 19.8706 44.7882 19.9289C44.7345 19.9487 44.647 19.9923 44.5938 20.0257C44.5401 20.0592 44.234 20.2404 43.9132 20.4286C43.5923 20.6165 43.3007 20.793 43.2649 20.8207C43.2291 20.8483 42.9374 21.0664 42.6166 21.3056C41.9776 21.7816 41.0163 22.7126 40.5865 23.2715C40.4357 23.4675 40.2474 23.7129 40.1681 23.8167C39.6641 24.4775 38.9438 26.0023 38.7369 26.847C38.6961 27.0135 38.6409 27.1714 38.6144 27.1982C38.5876 27.225 38.5658 27.3285 38.5658 27.428C38.5658 27.528 38.5207 27.7415 38.4659 27.9033C38.1738 28.7639 38.1485 32.6509 38.4317 33.1798C38.4655 33.2436 38.5141 33.4517 38.5394 33.6426C38.5647 33.8332 38.6246 34.0642 38.6724 34.156C38.7202 34.2477 38.7603 34.3955 38.7618 34.4846C38.763 34.5736 38.8069 34.7031 38.8594 34.7724C38.9119 34.8416 38.9547 34.9765 38.9547 35.0722C38.9547 35.1683 38.9983 35.283 39.052 35.3273C39.1052 35.3717 39.1492 35.4479 39.1492 35.4965C39.1492 35.61 39.7364 36.7413 39.9915 37.1194C40.0985 37.278 40.186 37.4355 40.186 37.4694C40.186 37.5032 40.2113 37.5308 40.2424 37.5308C40.2731 37.5308 40.3711 37.6405 40.4594 37.7739C41.0575 38.6769 42.638 40.0952 43.8482 40.8143C44.115 40.9729 45.4147 41.6037 45.6955 41.7107C45.8557 41.7717 46.0828 41.8627 46.1999 41.9125C46.317 41.9623 46.4585 42.0031 46.5141 42.0031C46.5701 42.0031 46.7078 42.0432 46.8198 42.0918C47.0135 42.1754 47.3203 42.2505 48.0612 42.3955C48.2397 42.4301 48.5457 42.4908 48.7417 42.5301C49.2586 42.6335 52.745 42.6786 53.344 42.5896C53.6111 42.5499 54.0436 42.4893 54.3041 42.4546C54.5651 42.42 54.8276 42.3668 54.8875 42.3356C54.9478 42.3049 55.1134 42.259 55.2558 42.2341C55.5093 42.1894 56.0347 42.0354 56.293 41.93C56.5629 41.82 57.012 41.6671 57.168 41.6329C57.257 41.6131 57.3644 41.5699 57.4064 41.5368C57.4484 41.5038 57.8225 41.3051 58.2378 41.0958C58.6532 40.8862 59.0907 40.64 59.2105 40.5487C59.3299 40.4577 59.4465 40.383 59.4691 40.383C59.9995 40.383 62.674 37.5281 63.136 36.4683C63.1687 36.3933 63.2216 36.2883 63.2535 36.2346C63.2853 36.1809 63.362 36.0207 63.4234 35.878C63.4852 35.7357 63.5759 35.5362 63.6252 35.4354C63.6742 35.3343 63.7143 35.2025 63.7143 35.1418C63.7143 35.0815 63.754 34.9746 63.8022 34.9042C63.8504 34.8338 63.9091 34.651 63.9329 34.4978C63.9566 34.345 64.0029 34.17 64.0355 34.1089C64.2051 33.7935 64.4291 31.8373 64.4345 30.6279C64.4376 29.9718 64.3097 28.3408 64.2428 28.177C64.2016 28.0767 64.1681 27.9122 64.1681 27.8119C64.1681 27.6155 64.0744 27.2736 63.7676 26.35C63.6614 26.0292 63.5587 25.6865 63.5397 25.5885C63.5206 25.4905 63.4848 25.4104 63.4596 25.4104C63.4343 25.4104 63.3293 25.2206 63.2258 24.9889C63.1224 24.7571 63.0151 24.5677 62.9874 24.5677C62.9594 24.5677 62.9365 24.5303 62.9365 24.4845C62.9365 24.4086 62.4515 23.6666 62.1439 23.2715C61.7784 22.8025 60.4588 21.5214 60.341 21.5214C60.3068 21.5214 60.2792 21.4969 60.2792 21.4674C60.2792 21.4176 59.809 21.0532 59.5535 20.9054C59.326 20.774 58.1694 20.086 58.0753 20.0265C58.022 19.9927 57.9345 19.9476 57.8808 19.9266C57.8275 19.9056 57.6817 19.8433 57.5569 19.7885C57.0494 19.5657 56.9335 19.521 56.7627 19.4836C56.6647 19.4622 56.5846 19.416 56.5846 19.381C56.5846 19.3463 56.5189 19.3176 56.4388 19.3176C56.3587 19.3176 56.1032 19.2561 55.8718 19.1807C55.0294 18.9069 54.8634 18.8633 54.672 18.8637C54.5651 18.8637 54.3753 18.831 54.2509 18.791C53.7585 18.6327 50.4074 18.4783 50.1355 18.6016ZM99.1989 19.1387C99.1818 19.1838 99.1752 24.2395 99.1845 30.3735L99.2012 41.5267L99.3541 41.7488C99.685 42.2306 99.4812 42.2034 102.764 42.2038H105.712L105.912 42.056C106.409 41.6885 106.366 42.8626 106.348 30.2961L106.331 19.0908L102.781 19.0741C99.9747 19.0609 99.2234 19.0741 99.1989 19.1387ZM125.134 19.1138C125.115 19.1445 125.168 19.3121 125.253 19.4863C125.487 19.9709 125.795 20.6348 125.836 20.7436C125.856 20.7969 125.899 20.8844 125.933 20.9381C125.989 21.0279 126.099 21.2609 126.645 22.4424C126.755 22.6815 126.846 22.904 126.846 22.9366C126.846 22.9693 126.889 23.0327 126.943 23.077C126.996 23.1214 127.04 23.2143 127.04 23.2839C127.04 23.3535 127.084 23.4539 127.137 23.5075C127.191 23.5608 127.235 23.6573 127.235 23.7218C127.235 23.786 127.278 23.8751 127.332 23.9194C127.385 23.9637 127.429 24.0399 127.429 24.0886C127.429 24.1372 127.513 24.3448 127.616 24.5506C128.102 25.5178 128.466 26.3111 128.466 26.4033C128.466 26.4589 128.493 26.5211 128.525 26.5409C128.61 26.5938 128.855 27.1165 128.855 27.2456C128.855 27.3055 128.877 27.3549 128.904 27.3549C128.931 27.3549 129.021 27.5077 129.103 27.6952C129.284 28.1039 129.678 28.9408 129.802 29.1796C129.852 29.2741 129.892 29.3982 129.892 29.455C129.892 29.5121 129.914 29.5584 129.941 29.5584C130.003 29.5584 130.281 30.1589 130.281 30.293C130.281 30.3483 130.308 30.4101 130.34 30.4299C130.4 30.4673 130.47 30.6061 130.894 31.5356C131.025 31.8206 131.159 32.0975 131.192 32.1512C131.226 32.2049 131.271 32.292 131.292 32.3456C131.365 32.5315 131.531 32.8971 131.587 32.9939C131.618 33.0472 131.659 33.1347 131.679 33.1884C131.742 33.3591 131.913 33.7359 131.973 33.8363C132.005 33.8899 132.062 34.0066 132.099 34.0957C132.137 34.1847 132.257 34.4472 132.365 34.679C132.474 34.9108 132.65 35.29 132.756 35.5218C132.863 35.7535 132.976 35.9865 133.009 36.0402C133.042 36.0938 133.098 36.2105 133.134 36.2996C133.25 36.5842 133.341 36.783 133.4 36.8829C133.431 36.9362 133.488 37.0529 133.525 37.1419C133.563 37.2314 133.682 37.4873 133.791 37.7113C134.037 38.2184 134.058 38.7185 133.852 39.1696C133.777 39.3337 133.716 39.499 133.716 39.5367C133.716 39.5745 133.687 39.6052 133.651 39.6052C133.616 39.6052 133.586 39.6382 133.586 39.6791C133.586 39.7195 133.524 39.8875 133.448 40.0516C133.371 40.2162 133.265 40.4526 133.211 40.5774C133.157 40.7019 133.089 40.8477 133.058 40.9014C133.027 40.9551 132.986 41.0422 132.966 41.0958C132.902 41.2681 132.731 41.6438 132.671 41.7441C132.639 41.7974 132.597 41.8849 132.576 41.9386C132.556 41.9919 132.483 42.1556 132.415 42.3022C132.346 42.4484 132.29 42.6016 132.29 42.6425C132.29 42.6829 132.261 42.7164 132.225 42.7164C132.189 42.7164 132.16 42.7627 132.16 42.8198C132.16 42.8766 132.119 43.0007 132.068 43.0952C132.017 43.1897 131.911 43.4129 131.833 43.5914C131.755 43.7695 131.666 43.9589 131.634 44.0126C131.602 44.0662 131.56 44.1534 131.54 44.207C131.52 44.2607 131.422 44.4792 131.323 44.6931C131.224 44.907 131.078 45.2279 130.998 45.406C130.807 45.8314 130.707 46.0539 130.539 46.4265C130.462 46.5956 130.373 46.7504 130.34 46.7706C130.308 46.7909 130.281 46.8562 130.281 46.9157C130.281 46.9756 130.191 47.2144 130.081 47.4469C129.971 47.6791 129.798 48.0443 129.697 48.2582C129.595 48.4721 129.45 48.7929 129.373 48.971C129.296 49.1491 129.146 49.4848 129.037 49.7165C128.929 49.9479 128.796 50.2396 128.741 50.3644C128.686 50.4893 128.616 50.6351 128.586 50.6888C128.555 50.7421 128.513 50.8296 128.493 50.8832C128.472 50.9365 128.399 51.1002 128.331 51.2469C128.263 51.3931 128.207 51.5463 128.207 51.5871C128.207 51.6276 128.181 51.661 128.15 51.661C127.927 51.661 127.952 52.732 128.182 53.0416C128.463 53.42 128.377 53.4111 131.711 53.4111H134.773L134.99 53.2458C135.134 53.1357 135.294 52.8934 135.47 52.5166C135.741 51.9379 135.765 51.8858 136.115 51.11C136.227 50.8603 136.407 50.4667 136.514 50.2349C136.621 50.0032 136.746 49.7263 136.791 49.6193C136.836 49.5124 136.939 49.279 137.018 49.1005C137.098 48.9224 137.208 48.6743 137.264 48.5498C137.319 48.425 137.39 48.2792 137.421 48.2255C137.451 48.1722 137.494 48.0847 137.517 48.031C137.602 47.8234 137.948 47.06 138.345 46.1986C138.473 45.9217 138.577 45.6755 138.577 45.6518C138.577 45.6277 138.711 45.3294 138.875 44.9887C139.339 44.0242 139.42 43.8418 139.42 43.7625C139.42 43.7217 139.449 43.6886 139.485 43.6886C139.52 43.6886 139.549 43.642 139.549 43.5852C139.549 43.528 139.592 43.4043 139.644 43.3094C139.696 43.2149 139.8 42.9917 139.876 42.8136C140.059 42.3796 140.389 41.6702 140.463 41.5497C140.496 41.496 140.539 41.4085 140.559 41.3552C140.578 41.3016 140.639 41.1557 140.694 41.0309C140.749 40.9064 140.832 40.7167 140.879 40.6097C140.926 40.5028 141.065 40.1967 141.187 39.9291C141.31 39.662 141.464 39.3116 141.529 39.1513C141.595 38.9907 141.686 38.8138 141.733 38.7574C141.78 38.701 141.818 38.5952 141.818 38.5221C141.818 38.449 141.862 38.3529 141.915 38.3086C141.969 38.2643 142.013 38.1849 142.013 38.1324C142.013 38.0799 142.052 37.9598 142.1 37.8649C142.148 37.7704 142.233 37.5907 142.288 37.4663C142.344 37.3414 142.498 37.0058 142.631 36.7207C142.765 36.4357 142.918 36.1001 142.971 35.9752C143.025 35.8508 143.094 35.7049 143.124 35.6513C143.155 35.5976 143.197 35.5105 143.217 35.4568C143.238 35.4031 143.31 35.2398 143.379 35.0932C143.447 34.9466 143.503 34.7937 143.503 34.7529C143.503 34.7125 143.532 34.679 143.568 34.679C143.604 34.679 143.633 34.6289 143.633 34.5678C143.633 34.5067 143.781 34.1493 143.962 33.7737C144.29 33.0935 144.42 32.8123 144.574 32.4429C144.619 32.3359 144.743 32.059 144.851 31.8272C145.029 31.4422 145.364 30.7142 145.626 30.1418C145.682 30.0173 145.766 29.8275 145.81 29.7206C145.962 29.3577 146.301 28.6192 146.361 28.5216C146.394 28.4679 146.437 28.3804 146.457 28.3272C146.501 28.2089 146.613 27.9488 146.805 27.5167C146.885 27.3386 146.996 27.0905 147.051 26.966C147.106 26.8412 147.177 26.6953 147.208 26.6417C147.238 26.5884 147.279 26.5009 147.298 26.4472C147.318 26.3939 147.417 26.175 147.519 25.9611C147.621 25.7472 147.724 25.5069 147.747 25.4264C147.771 25.3463 147.817 25.2805 147.85 25.2805C147.883 25.2805 147.911 25.2327 147.911 25.1744C147.911 25.116 147.966 24.948 148.034 24.8018C148.102 24.6552 148.207 24.4187 148.267 24.276C148.326 24.1333 148.458 23.8416 148.559 23.6277C148.96 22.7784 149.134 22.3899 149.174 22.2506C149.197 22.1701 149.24 22.1048 149.269 22.1048C149.298 22.1048 149.341 22.0025 149.365 21.8777C149.388 21.7528 149.432 21.6509 149.462 21.6509C149.492 21.6509 149.537 21.5724 149.561 21.4763C149.585 21.3807 149.69 21.1298 149.795 20.919C150.134 20.2354 150.05 19.6236 149.564 19.2413L149.373 19.0908H146.202C143.447 19.0908 143.025 19.1033 142.985 19.1881C142.96 19.2413 142.892 19.395 142.834 19.5291C142.776 19.6633 142.686 19.8675 142.634 19.983C142.376 20.5511 142.272 20.8074 142.272 20.8696C142.272 20.9074 142.242 20.9381 142.207 20.9381C142.171 20.9381 142.142 20.9859 142.142 21.0443C142.142 21.1434 141.987 21.5168 141.778 21.9201C141.729 22.015 141.688 22.1351 141.688 22.1876C141.688 22.2401 141.645 22.3195 141.591 22.3638C141.538 22.4081 141.494 22.4847 141.494 22.5337C141.494 22.6111 141.372 22.9024 141.009 23.6927C140.96 23.7996 140.901 23.9528 140.878 24.0329C140.856 24.1131 140.812 24.1788 140.782 24.1788C140.751 24.1788 140.706 24.2725 140.681 24.3872C140.655 24.502 140.612 24.6404 140.583 24.6952C140.385 25.0795 140.263 25.3622 140.263 25.4369C140.263 25.4847 140.219 25.5605 140.165 25.6049C140.112 25.6492 140.068 25.7254 140.068 25.7744C140.068 25.8518 139.929 26.1835 139.582 26.9333C139.533 27.0403 139.43 27.2736 139.354 27.4521C138.889 28.5438 138.787 28.7444 138.625 28.8903C138.25 29.2294 137.638 29.3375 137.295 29.1256C137.009 28.949 136.698 28.6336 136.698 28.5216C136.698 28.4644 136.672 28.3902 136.64 28.3563C136.607 28.3225 136.517 28.1343 136.438 27.9383C136.359 27.7419 136.254 27.4867 136.204 27.3709C136.155 27.255 136.068 27.0508 136.012 26.9174C135.955 26.7836 135.867 26.5915 135.817 26.4908C135.767 26.3897 135.724 26.273 135.723 26.2314C135.722 26.1898 135.665 26.0389 135.596 25.8965C135.527 25.7538 135.469 25.6029 135.468 25.5613C135.467 25.5197 135.425 25.403 135.375 25.3023C135.324 25.2012 135.232 25.0021 135.17 24.8594C135.108 24.7166 135.018 24.5226 134.97 24.4281C134.922 24.3336 134.883 24.2118 134.883 24.1578C134.883 24.1037 134.843 23.9769 134.794 23.8762C134.708 23.6997 134.572 23.3909 134.399 22.9798C134.354 22.8729 134.255 22.6508 134.179 22.4863C134.102 22.3222 134.04 22.1417 134.04 22.0853C134.04 22.029 134.014 21.9667 133.982 21.9469C133.951 21.9275 133.906 21.831 133.883 21.7326C133.86 21.6342 133.801 21.4662 133.753 21.3593C133.704 21.2523 133.614 21.0482 133.553 20.9054C133.491 20.7631 133.401 20.5636 133.352 20.4629C133.303 20.3618 133.262 20.2509 133.262 20.2163C133.262 19.906 132.769 19.2433 132.446 19.1208C132.24 19.0426 125.182 19.0356 125.134 19.1138ZM82.5992 23.4632C82.8796 23.4982 83.1421 23.5534 83.1825 23.5861C83.2234 23.6188 83.3805 23.6662 83.5322 23.6911C83.6834 23.716 83.8075 23.7631 83.8075 23.7957C83.8075 23.828 83.8619 23.8548 83.928 23.8548C84.1167 23.8548 85.1846 24.4226 85.5089 24.6956C85.6155 24.7851 85.6225 25.1339 85.6225 30.335V35.8796L85.4634 36.0507C85.2904 36.2373 84.6125 36.7682 84.4558 36.8397C84.4021 36.8642 84.271 36.9428 84.1641 37.0144C84.0572 37.0859 83.8892 37.1792 83.7911 37.2224C83.6931 37.2652 83.613 37.3216 83.613 37.3476C83.613 37.3741 83.5107 37.4145 83.3855 37.4383C83.2603 37.4616 83.1436 37.504 83.1257 37.5328C83.1082 37.5611 82.9702 37.6051 82.8185 37.63C82.6672 37.6549 82.5066 37.705 82.4619 37.7412C82.2628 37.9018 80.0301 37.8983 79.8353 37.7373C79.7917 37.7015 79.6467 37.6518 79.5125 37.6265C79.3787 37.6016 79.2531 37.5553 79.2333 37.5234C79.2138 37.4919 79.1477 37.4663 79.0866 37.4663C79.0256 37.4663 78.8206 37.364 78.6313 37.2391C78.4419 37.1143 78.2591 37.0124 78.2249 37.0124C78.0292 37.0124 76.5479 35.3001 76.5479 35.0738C76.5479 35.0438 76.5044 34.9827 76.4507 34.9384C76.3974 34.8941 76.3535 34.8007 76.3535 34.7311C76.3535 34.6619 76.3099 34.5612 76.2562 34.5079C76.203 34.4542 76.1583 34.3469 76.1571 34.2691C76.1559 34.1917 76.1124 34.0716 76.0599 34.0023C76.0074 33.9331 75.9646 33.8075 75.9646 33.7235C75.9646 33.6395 75.9245 33.4921 75.8751 33.3957C75.8257 33.2996 75.7643 33.0313 75.7382 32.7995C75.7122 32.5677 75.664 32.3449 75.6313 32.304C75.445 32.073 75.6449 28.4909 75.8744 27.9523C75.9241 27.8352 75.9646 27.6594 75.9646 27.5614C75.9646 27.4638 76.0046 27.3261 76.0536 27.2557C76.1026 27.1854 76.1633 27.0333 76.1886 26.9174C76.2135 26.8015 76.2613 26.7066 76.294 26.7066C76.3266 26.7066 76.3535 26.6374 76.3535 26.5526C76.3535 26.4678 76.3974 26.3621 76.4507 26.3177C76.5044 26.2734 76.5479 26.1991 76.5479 26.1524C76.5479 26.1058 76.5845 26.0292 76.6292 25.9821C76.6739 25.935 76.7925 25.7698 76.8933 25.615C77.1643 25.1981 77.9694 24.4195 78.352 24.2048C78.536 24.1014 78.6869 23.9948 78.6869 23.968C78.6869 23.9416 78.7234 23.9186 78.7682 23.9174C78.8125 23.9163 78.9657 23.8587 79.1084 23.7899C79.2508 23.7211 79.4273 23.6635 79.5004 23.6623C79.5736 23.6612 79.6626 23.6312 79.698 23.5954C79.8263 23.4675 81.4543 23.2812 81.8307 23.3516C81.9731 23.378 82.3192 23.4286 82.5992 23.4632ZM52.3927 25.3991C52.4347 25.433 52.5988 25.482 52.7579 25.508C52.9169 25.5345 53.0919 25.5804 53.1468 25.6103C53.2016 25.6403 53.4069 25.741 53.603 25.8347C54.2855 26.1602 54.5169 26.3224 55.0318 26.8353C55.4666 27.2686 55.8718 27.7555 55.8718 27.8453C55.8718 27.8729 55.9103 27.9414 55.9573 27.9978C56.4835 28.625 56.9358 31.2244 56.5944 31.6569C56.5625 31.697 56.517 31.8467 56.4932 31.989C56.4691 32.1317 56.4104 32.3359 56.3622 32.4429C56.314 32.5498 56.2086 32.7831 56.1277 32.9613C56.0025 33.237 55.7998 33.5652 55.5152 33.9541C55.3899 34.1256 54.4834 35.003 54.4317 35.003C54.4033 35.003 54.259 35.0905 54.1112 35.1974C53.9639 35.3044 53.7924 35.3919 53.7309 35.3919C53.6695 35.3919 53.5827 35.4358 53.5384 35.4891C53.4941 35.5428 53.4198 35.5863 53.3735 35.5863C53.3272 35.5863 53.2071 35.6275 53.1059 35.6773C52.5677 35.9445 50.722 36.0491 50.0383 35.8512C49.4324 35.6762 48.5473 35.2499 48.1584 34.9458C47.6085 34.5157 46.7972 33.6317 46.7972 33.4622C46.7972 33.4272 46.7537 33.3622 46.7 33.3179C46.6467 33.2735 46.6028 33.186 46.6028 33.1234C46.6028 33.0608 46.5592 32.9733 46.5056 32.929C46.4523 32.8846 46.4083 32.796 46.4083 32.7318C46.4083 32.6676 46.3683 32.5327 46.3189 32.432C45.8717 31.5153 45.8767 29.6012 46.3286 28.8012C46.3726 28.7234 46.4083 28.6157 46.4083 28.5617C46.4083 28.4524 46.6677 27.9826 46.7467 27.9488C46.7747 27.9371 46.7972 27.8904 46.7972 27.8453C46.7972 27.8002 46.8486 27.7022 46.9108 27.6275C46.973 27.5529 47.0971 27.3969 47.1861 27.281C47.4315 26.9625 47.6423 26.7533 47.9639 26.5094C48.1245 26.3881 48.2708 26.2679 48.2894 26.2423C48.3081 26.217 48.3956 26.1653 48.4839 26.1276C48.5722 26.0898 48.6958 26.0295 48.7581 25.9938C48.8203 25.958 48.9226 25.8997 48.9848 25.8639C49.0474 25.8281 49.1715 25.7694 49.2605 25.7328C49.3496 25.6967 49.4806 25.6387 49.5522 25.6045C49.6234 25.5703 49.8128 25.5104 49.9734 25.4715C50.1336 25.4326 50.3669 25.375 50.4918 25.3435C50.7757 25.272 52.29 25.3163 52.3927 25.3991Z" fill="#F5F5F5"/>
</svg>
